<?xml version="1.0" encoding="utf-8"?>
<!-- Generator: Adobe Illustrator 23.0.2, SVG Export Plug-In . SVG Version: 6.00 Build 0)  -->
<svg version="1.1" id="Capa_1" xmlns="http://www.w3.org/2000/svg" xmlns:xlink="http://www.w3.org/1999/xlink" x="0px" y="0px"
	 viewBox="0 0 50 50" style="enable-background:new 0 0 50 50;" xml:space="preserve">
<style type="text/css">
	.st0{fill:#FFFFFF;}
</style>
<title>Mesa de trabajo 1</title>
<path class="st0" d="M25,38.6c0,1.5-1.2,2.8-2.7,2.8H3.2c-1.5-0.1-2.7-1.4-2.6-3c0.1-1.4,1.2-2.5,2.6-2.6h19.1
	C23.8,35.8,25,37.1,25,38.6L25,38.6z"/>
<path class="st0" d="M49.5,25c0,1.5-1.2,2.8-2.7,2.8l0,0H3.2c-1.5,0-2.8-1.2-2.8-2.8c0-1.5,1.2-2.8,2.8-2.8h43.6
	C48.3,22.2,49.5,23.5,49.5,25L49.5,25z"/>
<path class="st0" d="M49.5,11.4c0,1.5-1.2,2.8-2.7,2.8l0,0H27.7c-1.5-0.1-2.7-1.4-2.6-3c0.1-1.4,1.2-2.5,2.6-2.6h19.1
	C48.3,8.6,49.5,9.9,49.5,11.4z"/>
</svg>
