<svg id="Capa_1" data-name="Capa 1" xmlns="http://www.w3.org/2000/svg" viewBox="0 0 50 50"><defs><style>.cls-1{fill:#1b222d;}</style></defs><title>Mesa de trabajo 1</title><path class="cls-1" d="M25,38.61a2.76,2.76,0,0,1-2.72,2.79H3.22a2.79,2.79,0,0,1,0-5.57H22.28A2.75,2.75,0,0,1,25,38.61Z"/><path class="cls-1" d="M49.5,25a2.75,2.75,0,0,1-2.72,2.78H3.22a2.78,2.78,0,0,1,0-5.56H46.78A2.75,2.75,0,0,1,49.5,25Z"/><path class="cls-1" d="M49.5,11.39a2.75,2.75,0,0,1-2.72,2.78H27.72a2.79,2.79,0,0,1,0-5.57H46.78A2.76,2.76,0,0,1,49.5,11.39Z"/></svg>