<?xml version="1.0" encoding="utf-8"?>
<!-- Generator: Adobe Illustrator 23.0.2, SVG Export Plug-In . SVG Version: 6.00 Build 0)  -->
<svg version="1.1" id="Capa_1" xmlns="http://www.w3.org/2000/svg" xmlns:xlink="http://www.w3.org/1999/xlink" x="0px" y="0px"
	 viewBox="0 0 55 55" style="enable-background:new 0 0 55 55;" xml:space="preserve">
<style type="text/css">
	.st0{fill:#4E77F9;}
</style>
<g>
	<path class="st0" d="M51.5,47.3H3.5c-1.9,0-3.5-1.7-3.5-3.5V11.2c0-1.9,1.7-3.5,3.5-3.5h47.9c2,0,3.5,1.7,3.5,3.5v32.5
		C55.1,45.7,53.4,47.3,51.5,47.3z"/>
	<g>
		<path d="M6.6,32.3c0-0.6,0.2-1,0.6-1.3c0.3-0.3,0.9-0.6,1.4-0.6S9.7,30.7,10,31s0.6,0.8,0.6,1.3c0,0.6-0.2,1-0.6,1.3
			c-0.3,0.3-0.9,0.6-1.4,0.6S7.4,34,7.1,33.7C6.8,33.3,6.6,32.9,6.6,32.3z"/>
		<path d="M14.7,35.5h-2.6l6.6-19.3h2.6L14.7,35.5z"/>
		<path d="M26.7,20.9v13.9c0,1.4-0.4,2.6-1.2,3.4c-0.8,0.8-1.9,1.2-3.3,1.2c-0.7,0-1.2-0.1-1.8-0.2v-2.8c0.4,0.1,0.8,0.1,1.1,0.1
			c1.1,0,1.7-0.6,1.7-1.7v-14H26.7z M22.9,17.5c0-0.6,0.2-1,0.6-1.3c0.3-0.3,0.9-0.6,1.4-0.6s1.1,0.2,1.4,0.6
			c0.3,0.3,0.6,0.8,0.6,1.3s-0.2,1-0.6,1.3c-0.3,0.3-0.9,0.6-1.4,0.6s-1.1-0.2-1.4-0.6C23.1,18.4,22.9,17.9,22.9,17.5z"/>
		<path d="M32.8,20.9l0.1,1.4c0.9-1.1,2.2-1.8,3.7-1.8c1.7,0,2.9,0.7,3.5,2c0.9-1.3,2.2-2,4-2c1.4,0,2.5,0.4,3.2,1.2
			c0.7,0.9,1.1,2.1,1.1,3.7v8.6h-3.5v-8.4c0-0.8-0.1-1.3-0.4-1.7s-0.8-0.6-1.5-0.6c-1.1,0-1.8,0.6-2.2,1.5v9h-3.5v-8.4
			c0-0.8-0.1-1.3-0.4-1.7c-0.3-0.3-0.8-0.6-1.5-0.6c-1,0-1.8,0.4-2.2,1.2v9.4h-3.5V20.9H32.8z"/>
	</g>
</g>
</svg>
