<?xml version="1.0" encoding="utf-8"?>
<!-- Generator: Adobe Illustrator 23.0.2, SVG Export Plug-In . SVG Version: 6.00 Build 0)  -->
<svg version="1.1" xmlns="http://www.w3.org/2000/svg" xmlns:xlink="http://www.w3.org/1999/xlink" x="0px" y="0px"
	 viewBox="0 0 50 50" style="enable-background:new 0 0 50 50;" xml:space="preserve">
<style type="text/css">
	.st0{fill:#33CCFF;}
	.st1{fill-rule:evenodd;clip-rule:evenodd;fill:#FFFFFF;}
	.st2{fill:#3C5A99;}
	.st3{fill-rule:evenodd;clip-rule:evenodd;fill:#3C5A99;}
	.st4{fill:#60FC7C;}
	.st5{fill-rule:evenodd;clip-rule:evenodd;fill:#60FC7C;}
	.st6{fill:#FEFB01;}
	.st7{fill:#FF0000;}
	.st8{fill:url(#SVGID_1_);}
	.st9{fill:#4176FA;}
	.st10{fill:#FF0084;}
	.st11{fill:#2C455C;}
	.st12{fill:#007AB9;}
	.st13{fill:#F23F7E;}
	.st14{fill:#333033;}
	.st15{fill:#FFFFFF;}
	.st16{fill:#F2F2F6;}
	.st17{fill-rule:evenodd;clip-rule:evenodd;fill:#153A36;}
	.st18{fill:#153A36;}
	.st19{fill:url(#SVGID_2_);}
	.st20{fill:#5B4FE9;}
	.st21{fill:url(#SVGID_3_);}
	.st22{fill:url(#SVGID_4_);}
	.st23{fill:url(#SVGID_5_);}
	.st24{fill:url(#SVGID_6_);}
	.st25{fill:url(#SVGID_7_);}
	.st26{fill:url(#SVGID_8_);}
	.st27{fill:url(#SVGID_9_);}
	.st28{fill:url(#SVGID_10_);}
	.st29{fill:url(#SVGID_11_);}
	.st30{fill:url(#SVGID_12_);}
	.st31{fill:url(#SVGID_13_);}
	.st32{fill:url(#SVGID_14_);}
	.st33{fill-rule:evenodd;clip-rule:evenodd;fill:#333033;}
	.st34{fill:url(#SVGID_15_);}
	.st35{display:none;}
	.st36{display:inline;}
	.st37{fill:#13181F;}
	.st38{fill-rule:evenodd;clip-rule:evenodd;fill:#13181F;}
	.st39{fill:#12171E;}
	.st40{fill:#12171F;}
</style>
<g id="Design">
</g>
<g id="twitter" class="st35">
	<g class="st36">
		<g>
			<path class="st15" d="M25,50C11.2,50,0,38.8,0,25C0,11.2,11.2,0,25,0c13.8,0,25,11.2,25,25C50,38.8,38.8,50,25,50z"/>
		</g>
		<g>
			<g>
				<g>
					<path class="st37" d="M39.4,15.9c-0.9,0.4-1.9,0.7-2.9,0.8c0.5-0.1,1.2-0.9,1.5-1.3c0.4-0.5,0.8-1.1,1-1.8c0-0.1,0-0.1,0-0.2
						c-0.1,0-0.1,0-0.2,0c-1.1,0.6-2.3,1-3.5,1.3c-0.1,0-0.2,0-0.2-0.1c-0.1-0.1-0.2-0.2-0.3-0.3c-0.5-0.4-1.1-0.8-1.7-1
						c-0.8-0.3-1.7-0.5-2.6-0.4c-0.9,0.1-1.7,0.3-2.5,0.7c-0.8,0.4-1.4,1-2,1.6c-0.6,0.7-1,1.5-1.2,2.4c-0.2,0.8-0.2,1.7-0.1,2.5
						c0,0.1,0,0.2-0.1,0.1c-4.8-0.7-8.8-2.4-12-6.1c-0.1-0.2-0.2-0.2-0.3,0c-1.4,2.1-0.7,5.5,1,7.2c0.2,0.2,0.5,0.4,0.7,0.6
						c-0.1,0-1.3-0.1-2.3-0.6c-0.1-0.1-0.2,0-0.2,0.1c0,0.2,0,0.4,0,0.7c0.3,2.1,1.8,4.1,3.8,4.9c0.2,0.1,0.5,0.2,0.8,0.2
						c-0.5,0.1-0.9,0.2-2.3,0.1c-0.2,0-0.2,0.1-0.2,0.2c1,2.7,3.2,3.5,4.8,4c0.2,0,0.4,0,0.7,0.1c0,0,0,0,0,0
						c-0.5,0.8-2.4,1.4-3.3,1.7c-1.6,0.6-3.3,0.8-5,0.6c-0.3,0-0.3,0-0.4,0c-0.1,0,0,0.1,0.1,0.2c0.3,0.2,0.7,0.4,1,0.6
						c1.1,0.6,2.2,1,3.3,1.3c6,1.6,12.7,0.4,17.1-4c3.5-3.5,4.7-8.3,4.7-13.1c0-0.2,0.2-0.3,0.4-0.4c0.9-0.7,1.6-1.5,2.3-2.4
						c0.2-0.2,0.1-0.4,0.1-0.5c0,0,0,0,0,0C39.5,15.8,39.5,15.8,39.4,15.9z"/>
				</g>
				<g>
					<path class="st38" d="M19,36.9C19,36.9,18.5,36.9,19,36.9C19,36.9,18.9,36.9,19,36.9z"/>
				</g>
				<g>
					<path class="st38" d="M20,36.9C20,36.9,20.5,36.9,20,36.9C20,36.9,20,36.9,20,36.9z"/>
				</g>
				<g>
					<path class="st38" d="M30.3,13c0,0-0.1,0-0.1,0C30.2,13,30.2,13,30.3,13z"/>
				</g>
			</g>
		</g>
	</g>
</g>
<g id="dribbble" class="st35">
	<g class="st36">
		<g>
			<g>
				<path class="st15" d="M25,50C11.2,50,0,38.8,0,25C0,11.2,11.2,0,25,0c13.8,0,25,11.2,25,25C50,38.8,38.8,50,25,50z"/>
			</g>
		</g>
		<g>
			<g>
				<path class="st39" d="M26.4,9.9C17,9.1,9.1,17,10,26.4c0.6,7.2,6.5,13,13.7,13.7c9.4,0.8,17.3-7,16.5-16.5
					C39.5,16.4,33.6,10.6,26.4,9.9z M35,17.6c1.4,1.9,2.3,4.3,2.5,6.8c0,0.2-0.1,0.3-0.3,0.2c-2.8-0.6-5.4-0.7-7.9-0.3
					c-0.1,0-0.2,0-0.2-0.1c-0.3-0.7-0.6-1.3-0.9-1.9c-0.1-0.1,0-0.3,0.1-0.3c2.3-1,4.4-2.5,6.3-4.4C34.7,17.4,34.9,17.5,35,17.6z
					 M32.8,15.6c-1.7,1.7-3.6,3-5.7,3.9c-0.1,0-0.2,0-0.3-0.1c-1.5-2.7-3-4.8-4.1-6.3c-0.1-0.1,0-0.3,0.1-0.4
					c0.7-0.1,1.4-0.2,2.2-0.2c2.9,0,5.6,1,7.7,2.7C32.8,15.3,32.9,15.5,32.8,15.6z M19.9,13.9c1.1,1.3,2.7,3.4,4.3,6.4
					c0.1,0.1,0,0.3-0.1,0.3c-3.2,0.9-6.8,1.3-10.8,1.5c-0.2,0-0.3-0.1-0.2-0.3c0.9-3.5,3.4-6.4,6.6-8C19.7,13.8,19.8,13.8,19.9,13.9
					z M12.8,24.8c4.3-0.1,8.6-0.6,12.6-1.8c0.1,0,0.2,0,0.3,0.1c0.2,0.5,0.5,1,0.7,1.6c0.1,0.1,0,0.3-0.1,0.3
					c-3.9,1.3-7.4,3.9-10.6,7.8c-0.1,0.1-0.3,0.1-0.4,0c-1.8-1.9-2.7-4.7-2.7-7.8C12.6,24.9,12.7,24.8,12.8,24.8z M17.6,34.7
					c2.9-3.7,6.1-6.1,9.6-7.2c0.1,0,0.2,0,0.3,0.1c0.9,2.6,1.7,5.5,2.2,8.7c0,0.1,0,0.2-0.1,0.3c-1.4,0.6-3,0.9-4.6,0.9
					c-2.8,0-5.3-0.9-7.4-2.4C17.6,35,17.5,34.8,17.6,34.7z M32.2,34.8c-0.5-2.7-1.2-5.3-2-7.6c0-0.1,0-0.3,0.2-0.3
					c2.1-0.2,4.3-0.1,6.6,0.5c0.1,0,0.2,0.2,0.2,0.3c-0.6,3-2.3,5.5-4.6,7.3C32.4,35,32.2,34.9,32.2,34.8z"/>
			</g>
		</g>
	</g>
</g>
<g id="Behance" class="st35">
	<g class="st36">
		<g>
			<g>
				<path class="st15" d="M25,50C11.2,50,0,38.8,0,25C0,11.2,11.2,0,25,0c13.8,0,25,11.2,25,25C50,38.8,38.8,50,25,50z"/>
			</g>
		</g>
		<g>
			<g>
				<g>
					<path class="st40" d="M34.5,20.9c-6.8,0-6.8,6.8-6.8,6.8c0,0-0.5,6.8,6.8,6.8c0,0,5.5,0.3,6.1-4c0-0.4-0.2-0.7-0.6-0.7H38
						c-0.3,0-0.5,0.2-0.6,0.4c-0.2,0.6-0.8,1.5-2.8,1.5c0,0-2.6,0.2-3.1-2.4c-0.1-0.4,0.2-0.7,0.6-0.7h7.9c0.3,0,0.6-0.3,0.6-0.6
						C40.8,26.2,40.5,20.9,34.5,20.9z M31.9,26.2c-0.3,0-0.4-0.2-0.4-0.5c0.3-0.8,1-2.3,3-2.3c2.1,0,2.6,1.5,2.7,2.3
						c0,0.2-0.1,0.4-0.4,0.4H31.9z M23.7,24.6c-0.2-0.1-0.3-0.4,0-0.5c0.8-0.4,1.7-1.2,1.7-3.1c0-3.2-2.2-4.7-5-4.7h-8.8
						c-0.3,0-0.5,0.2-0.5,0.5v16.9c0,0.3,0.2,0.5,0.5,0.5h8.8c0,0,5.7,0.2,5.7-5.3C25.9,28.9,26.1,25.5,23.7,24.6z M15.1,19.9
						c0-0.2,0.2-0.3,0.3-0.3h4.8c0,0,1.3,0,1.3,1.9c0,1.9-0.7,2.1-1.6,2.1h-4.5c-0.2,0-0.3-0.2-0.3-0.3V19.9z M20,31h-4.6
						c-0.2,0-0.3-0.2-0.3-0.3v-4.1c0-0.2,0.2-0.3,0.3-0.3h4.8c0,0,1.9,0,1.9,2.5C22.1,30.8,20.8,31,20,31z M30.7,17.1v1.5
						c0,0.2,0.1,0.3,0.3,0.3h6.7c0.2,0,0.3-0.2,0.3-0.3v-1.5c0-0.2-0.2-0.3-0.3-0.3H31C30.8,16.7,30.7,16.9,30.7,17.1z"/>
				</g>
			</g>
		</g>
	</g>
</g>
<g id="Instagram" class="st35">
	<g class="st36">
		<circle class="st39" cx="25" cy="24.8" r="21.9"/>
		<g>
			<g>
				<path class="st15" d="M25,50C11.2,50,0,38.8,0,25C0,11.2,11.2,0,25,0s25,11.2,25,25C50,38.8,38.8,50,25,50z M33.4,14.9
					c-1,0-1.8,0.8-1.8,1.8c0,1,0.8,1.8,1.8,1.8s1.8-0.8,1.8-1.8C35.3,15.7,34.5,14.9,33.4,14.9z M25.2,17.2c-4.3,0-7.8,3.5-7.8,7.8
					s3.5,7.8,7.8,7.8c4.3,0,7.8-3.5,7.8-7.8S29.5,17.2,25.2,17.2z M25.2,30c-2.7,0-5-2.2-5-5s2.2-5,5-5c2.7,0,5,2.2,5,5
					S28,30,25.2,30z M40.9,18.5c0-5.2-4.2-9.5-9.5-9.5H18.9c-5.2,0-9.5,4.2-9.5,9.5v12.5c0,5.2,4.2,9.5,9.5,9.5h12.5
					c5.2,0,9.5-4.2,9.5-9.5V18.5z M37.9,31.1c0,3.6-2.9,6.5-6.5,6.5H18.9c-3.6,0-6.5-2.9-6.5-6.5V18.5c0-3.6,2.9-6.5,6.5-6.5h12.5
					c3.6,0,6.5,2.9,6.5,6.5V31.1z"/>
			</g>
		</g>
	</g>
</g>
<g id="Linkeidn" class="st35">
	<g class="st36">
		<g>
			<path class="st15" d="M25,50C11.2,50,0,38.8,0,25C0,11.2,11.2,0,25,0c13.8,0,25,11.2,25,25C50,38.8,38.8,50,25,50z"/>
		</g>
		<g>
			<g>
				<g>
					<path class="st39" d="M39.1,26.9v9.3c0,0.2-0.2,0.4-0.4,0.4h-4.8c-0.2,0-0.4-0.2-0.4-0.4v-8.7c0-2.3-0.8-3.8-2.9-3.8
						c-1.6,0-2.5,1.1-2.9,2.1c-0.1,0.4-0.2,0.9-0.2,1.4v9.1c0,0.2-0.2,0.4-0.4,0.4h-4.8c-0.2,0-0.4-0.2-0.4-0.4
						c0-2.3,0.1-13.5,0-16.2c0-0.2,0.2-0.4,0.4-0.4h4.8c0.2,0,0.4,0.2,0.4,0.4v2c0,0,0,0,0,0.1h0v-0.1c0.8-1.2,2.1-2.8,5.1-2.8
						C36.3,19.3,39.1,21.7,39.1,26.9L39.1,26.9z M13.5,36.7h4.8c0.2,0,0.4-0.2,0.4-0.4V20.1c0-0.2-0.2-0.4-0.4-0.4h-4.8
						c-0.2,0-0.4,0.2-0.4,0.4v16.2C13.1,36.5,13.3,36.7,13.5,36.7z"/>
				</g>
			</g>
		</g>
		<g>
			<g>
				<circle class="st39" cx="15.8" cy="14.5" r="3"/>
			</g>
		</g>
	</g>
</g>
<g id="Medium">
	<g>
		<circle class="st15" cx="25" cy="25" r="25"/>
		<g>
			<g>
				<g>
					<path class="st39" d="M16.8,14.2c6,0,10.8,4.9,10.8,10.9c0,6-4.9,10.8-10.9,10.8c-5.9,0-10.8-5-10.8-10.9
						C6,19,10.9,14.2,16.8,14.2z"/>
				</g>
				<g>
					<path class="st39" d="M39.5,25.1c-0.1,3-0.5,6-2.5,8.5c-1.7,2.1-3.8,2.2-5.6,0.2c-1.3-1.4-1.9-3.1-2.3-4.9
						c-0.7-3.4-0.6-6.8,0.8-10.1c0.4-1,1-2,1.8-2.8c1.5-1.7,3.6-1.6,5.1,0.1c1.8,2,2.4,4.5,2.7,7C39.5,23.7,39.5,24.4,39.5,25.1z"/>
				</g>
				<g>
					<ellipse class="st39" cx="42.2" cy="25" rx="1.8" ry="9.2"/>
				</g>
			</g>
		</g>
	</g>
</g>
</svg>
