<svg xmlns="http://www.w3.org/2000/svg" viewBox="0 0 50 50"><defs><style>.cls-1{fill:#fff;}.cls-2,.cls-3{fill:#13181f;}.cls-3{fill-rule:evenodd;}</style></defs><title>twitter</title><g id="twitter"><path class="cls-1" d="M25,50A25,25,0,1,1,50,25,25,25,0,0,1,25,50Z"/><path class="cls-2" d="M39.37,15.88a12.13,12.13,0,0,1-2.95.84c.48-.08,1.18-.94,1.46-1.29a5.54,5.54,0,0,0,1-1.78c0-.05,0-.12,0-.16a.16.16,0,0,0-.15,0,15.12,15.12,0,0,1-3.5,1.33.23.23,0,0,1-.24-.06,3,3,0,0,0-.31-.31,6,6,0,0,0-1.69-1,5.93,5.93,0,0,0-2.6-.42,6.35,6.35,0,0,0-4.45,2.32,6.07,6.07,0,0,0-1.19,2.38,6.43,6.43,0,0,0-.06,2.51c0,.14,0,.16-.12.14-4.8-.71-8.78-2.43-12-6.11-.14-.16-.21-.16-.33,0-1.41,2.12-.73,5.52,1,7.2.24.22.48.44.74.65a6.15,6.15,0,0,1-2.32-.65c-.14-.09-.21,0-.22.12a2.72,2.72,0,0,0,0,.69,6.18,6.18,0,0,0,3.79,4.91,3.42,3.42,0,0,0,.77.23,6.73,6.73,0,0,1-2.27.07c-.17,0-.23.05-.17.21a6.38,6.38,0,0,0,4.78,4c.22,0,.43,0,.65.09,0,0,0,0,0,0-.53.82-2.39,1.43-3.26,1.73a11.57,11.57,0,0,1-5,.63c-.27,0-.33,0-.4,0s0,.11.08.18c.33.22.68.42,1,.61a16.6,16.6,0,0,0,3.31,1.33c5.95,1.64,12.66.43,17.13-4,3.51-3.48,4.74-8.29,4.74-13.11,0-.19.22-.29.35-.39a11.57,11.57,0,0,0,2.32-2.42.69.69,0,0,0,.15-.47v0C39.48,15.8,39.49,15.82,39.37,15.88Z"/><path class="cls-3" d="M19,36.9Z"/><path class="cls-3" d="M20,36.92c0-.05.52,0,0,0C20,36.9,20,36.92,20,36.92Z"/><path class="cls-3" d="M30.28,13a.09.09,0,0,1-.12,0Z"/></g></svg>